<?xml version="1.0" encoding="utf-8"?>
<!-- Generator: Adobe Illustrator 23.0.2, SVG Export Plug-In . SVG Version: 6.00 Build 0)  -->
<svg version="1.1" id="a581a3db-2a43-4a80-ac9d-86c7ddaa56ac"
	 xmlns="http://www.w3.org/2000/svg" xmlns:xlink="http://www.w3.org/1999/xlink" x="0px" y="0px" viewBox="0 0 903.8 748.2"
	 style="enable-background:new 0 0 903.8 748.2;" xml:space="preserve">
<style type="text/css">
	.st0{fill:#3F3D56;}
	.st1{fill:#F2F2F2;}
	.st2{opacity:0.7;}
	.st3{fill:url(#SVGID_1_);}
	.st4{fill:#0FE22F;}
	.st5{opacity:0.1;enable-background:new    ;}
	.st6{fill:#41D599;}
	.st7{fill:#EEEEEE;}
	.st8{fill:none;stroke:#E0E0E0;stroke-width:8;stroke-miterlimit:10;}
	.st9{fill:url(#SVGID_2_);}
	.st10{fill:none;stroke:#BDBDBD;stroke-width:5;stroke-miterlimit:10;}
	.st11{fill:#B84733;}
	.st12{fill:#F55F44;}
	.st13{fill:#39447A;}
	.st14{opacity:5.000000e-02;enable-background:new    ;}
	.st15{fill:#FDA57D;}
	.st16{fill:#333333;}
	.st17{fill:url(#SVGID_3_);}
	.st18{fill:#E0E0E0;}
	.st19{fill:#535461;}
	.st20{fill:url(#SVGID_4_);}
	.st21{fill:#3E3F49;}
</style>
<title>Hello</title>
<path class="st0" d="M137.3,601.9c0,45.2-26.9,61-60.1,61c-0.8,0-1.5,0-2.3,0c-1.5,0-3.1-0.1-4.6-0.2c-29.9-2.1-53.2-18.7-53.2-60.8
	c0-43.5,55.6-98.5,59.8-102.6l0,0c0.2-0.2,0.2-0.2,0.2-0.2S137.3,556.7,137.3,601.9z"/>
<path class="st1" d="M75,656l22-30.7l-22,34.1l-0.1,3.5c-1.5,0-3.1-0.1-4.6-0.2l2.4-45.3l0-0.4l0-0.1l0.2-4.3l-22.1-34.2L73,609.5
	l0.1,0.9l1.8-34.2L56,541l19.1,29.3l1.9-70.9l0-0.2v0.2l-0.3,55.9l18.8-22.2l-18.9,27l-0.5,30.6l17.6-29.4L76,595.2l-0.3,17
	l25.5-40.9l-25.6,46.8L75,656z"/>
<g class="st2">
	
		<linearGradient id="SVGID_1_" gradientUnits="userSpaceOnUse" x1="963.6259" y1="339.1852" x2="963.6259" y2="400.1978" gradientTransform="matrix(1 0 0 -1 -149.8033 674.1076)">
		<stop  offset="0" style="stop-color:#808080;stop-opacity:0.25"/>
		<stop  offset="0.5351" style="stop-color:#808080;stop-opacity:0.12"/>
		<stop  offset="1" style="stop-color:#808080;stop-opacity:0.1"/>
	</linearGradient>
	<path class="st3" d="M834,284.8v-10.9h-54.5v50.4c0,5.9,4.8,10.6,10.6,10.6h33.2c5.9,0,10.6-4.8,10.6-10.6v-11.2
		c7.8,0,14.2-6.4,14.2-14.2C848.1,291.1,841.8,284.8,834,284.8z M834,307.7v-17.4c4.8,0,8.7,3.9,8.7,8.7
		C842.7,303.8,838.8,307.7,834,307.7C834,307.7,834,307.7,834,307.7z"/>
</g>
<path class="st4" d="M832.2,286.5c-7.1,0-12.9,5.8-12.9,12.9s5.8,12.9,12.9,12.9s12.9-5.8,12.9-12.9S839.4,286.5,832.2,286.5
	L832.2,286.5z M832.2,307.4c-4.4,0-8-3.6-8-8c0-4.4,3.6-8,8-8c4.4,0,8,3.6,8,8C840.2,303.8,836.6,307.4,832.2,307.4L832.2,307.4z"/>
<path class="st5" d="M832.2,286.5c-7.1,0-12.9,5.8-12.9,12.9s5.8,12.9,12.9,12.9s12.9-5.8,12.9-12.9S839.4,286.5,832.2,286.5
	L832.2,286.5z M832.2,307.4c-4.4,0-8-3.6-8-8c0-4.4,3.6-8,8-8c4.4,0,8,3.6,8,8C840.2,303.8,836.6,307.4,832.2,307.4L832.2,307.4z"/>
<path class="st6" d="M782.5,276.6h49.7l0,0v46c0,5.4-4.4,9.8-9.8,9.8h-30.2c-5.4,0-9.8-4.4-9.8-9.8V276.6L782.5,276.6z"/>
<path class="st5" d="M823.3,276.6v46c0,5.4-4.3,9.7-9.7,9.7h5c5.4,0,9.7-4.3,9.7-9.7v-46H823.3z"/>
<path class="st7" d="M792.3,239.5c-0.9,0-1.7,0.4-2.2,1.1c-0.7,1.2,0.5,2.5,1.6,3.3c2,1.5,4.1,3,5.4,5.1s1.8,5,0.3,7
	c-1.9,2.6-6.5,3.2-7,6.4c-0.3,2.1,1.5,3.8,3.3,4.9c4.5,2.6,10.3,3.3,13.5,7.3c1.3-2.8,4.3-4.4,7.3-5c3-0.7,6.1-0.6,9.1-1.1
	c1,0,1.9-0.5,2.5-1.3c0.8-1.7-1.6-3.8-0.7-5.5c0.6-1.3,2.5-1.2,3.9-1.7c2.2-0.9,3.1-3.7,2.5-6c-0.6-2.3-2.4-4.1-4.3-5.6
	c-5-4-11.1-6.3-17.2-8c-2.9-0.8-6.2-2-9.2-2.1C798.4,238.1,795.1,239,792.3,239.5z"/>
<line class="st8" x1="443.2" y1="344" x2="339.2" y2="668"/>
<g class="st2">
	
		<linearGradient id="SVGID_2_" gradientUnits="userSpaceOnUse" x1="514.0948" y1="-74.1077" x2="514.0948" y2="674.1076" gradientTransform="matrix(1 0 0 -1 -149.8033 674.1076)">
		<stop  offset="0" style="stop-color:#808080;stop-opacity:0.25"/>
		<stop  offset="0.5351" style="stop-color:#808080;stop-opacity:0.12"/>
		<stop  offset="1" style="stop-color:#808080;stop-opacity:0.1"/>
	</linearGradient>
	<path class="st9" d="M523.8,704.5c-12.8,0.7-24.2,11.5-24.2,11.5l-5.5-13.7l-0.5,0.1c2.7-11.8,57.5-254.7,2.6-275.7
		c-42.1-16.1-86.8-36-121.8-35.3v-57.4h49.1v-2h38.9c7.4-5.3-3.4-9-15.5-11.3c0.5-0.6,0.9-1.2,1.3-1.8l62.2-111.7
		c0,0,14.3-23.5,5.1-34.8s-22.5,28.6-22.5,28.6l-51.1,73.6c0,0-51.6-53.8-84.4-80.5c-3.6-3.6-7.8-6.7-12.2-9.2
		c-6-4.1-10.5-6.2-12.8-5.3c0,0,0,0-0.1,0c-5-1.4-10.1-2.1-15.3-2.1h-4.1v-8.4c18.6-6.1,33.4-20.2,40.5-38.4
		c11.7-19.4,13.8-43,5.8-64.2c0.6-0.1,1.2-0.3,1.7-0.6c1.9-1.2,2-3.8,1.9-6c-1.4-15-10-28.3-23.1-35.6c-5.2-2.8-11.1-4.8-14.9-9.3
		c-3.3-3.9-4.7-9.3-8.6-12.4C311.6-1,304.8-0.3,299,1.3c-6.4,1.9-12.6,4.7-18.1,8.5c-6.3,4.3-11.9,9.8-19.1,12.2
		c-5.1,1.7-10.7,1.7-15.8,3.2c-8,2.5-14.4,8.7-17.1,16.7c-1.3,4.2-1.8,8.6-1.5,13c-3.1,5.2-5.6,10.9-7.3,16.7
		c-0.4,0.2-0.8,0.4-1.2,0.6l1.1-0.5c-8,26.9,0.1,56.1,20.7,75.1c8,10.4,19,18.2,31.5,22.3v10.2c-8.9,1.9-17.4,5.4-25.1,10.3l0,0
		c0,0-0.7,0.4-1.8,1.2c-0.1,0.1-0.2,0.2-0.3,0.2c-7.6,5.1-32.9,23.9-32.1,44.2c0,0.8,0,1.6,0,2.3c-1.4,5.9-2.1,11.9-2.1,17.9v147.2
		c0,16.3,5.4,32.1,15.5,44.8c-21.3,4.8-34.9,12-34.9,20.1c0.1,0.7,0.1,1.4,0,2c0,14.4,43,26.1,96.1,26.1c6.4,0,12.7-0.2,18.8-0.5
		l60,48.6l-96.1,154.4c0,0-31.7,24.5-7.2,32.7s74.7,14.3,74.7,14.3s8.2-14.3-3.1-20.5s-26.6-3.1-26.6-3.1l2-12.3
		c0,0,166.7-143.2,131.9-192.3c-6.7-9.4-13.3-19.1-20-28.6l26.2,2.4l6,224.8l0.7-0.2c-1.5,4.4-12.1,37.7,11.4,32.1
		c25.2-6,70.9-27.3,70.9-27.3S536.6,703.8,523.8,704.5z M423.5,317.8l-49.1-14.3v-42l53.4,56.6C425.2,317.9,423.5,317.8,423.5,317.8
		z"/>
</g>
<circle cx="292.2" cy="99" r="72"/>
<path class="st6" d="M374.2,264l54.9,58.3c4.1,4.3,10.9,4.5,15.2,0.5c0.8-0.8,1.5-1.6,2-2.6L507.2,211l-17-6l-50,72
	c0,0-93.9-97.8-107-93S374.2,264,374.2,264z"/>
<line class="st10" x1="269.2" y1="466" x2="188.2" y2="676"/>
<line class="st10" x1="309.2" y1="466" x2="390.2" y2="676"/>
<ellipse class="st11" cx="289.2" cy="467.5" rx="94" ry="25.5"/>
<ellipse class="st12" cx="289.2" cy="465.5" rx="94" ry="25.5"/>
<line class="st10" x1="249.7" y1="512.2" x2="338.3" y2="539.5"/>
<line class="st10" x1="328.8" y1="512.2" x2="240.1" y2="539.5"/>
<path class="st6" d="M290.3,182h27.9c30.9,0,56,25.1,56,56v148l0,0h-160l0,0V258.1C214.2,216.1,248.3,182,290.3,182z"/>
<path class="st13" d="M214.2,386h160l0,0v87l0,0h-89c-39.2,0-71-31.8-71-71l0,0V386L214.2,386z"/>
<path class="st14" d="M216.4,242.1l97.8,93h108v-14l-93-27l-79.6-98.2C249.7,195.8,213.5,218.1,216.4,242.1z"/>
<path class="st6" d="M216.4,240.1l97.8,93h108v-14l-93-27l-79.6-98.2C249.7,193.8,213.5,216.1,216.4,240.1z"/>
<path class="st15" d="M422.2,319c0,0,52,4,38,14h-38V319z"/>
<path class="st15" d="M490.2,205c0,0,13-39,22-28s-5,34-5,34L490.2,205z"/>
<polygon class="st14" points="214.2,386 214.2,390.7 374.2,391 374.2,386 "/>
<path class="st13" d="M338.7,478.6l107.6,9.8l5.8,219.8l38.5-12.5c0,0,57.6-249,2.7-270c-54.9-21-114.3-48.6-149.8-26.1
	S338.7,478.6,338.7,478.6z"/>
<path class="st5" d="M345.2,411c0,0,59,30,67,64"/>
<path class="st13" d="M282.2,472l84,68l-94,151l39,11c0,0,163-140,129-188s-68-104-110-105S282.2,472,282.2,472z"/>
<polygon class="st14" points="414.2,251 435.2,287 440.2,277 "/>
<path class="st16" d="M272.2,691c0,0-31,24-7,32s73,14,73,14s8-14-3-20s-26-3-26-3l2-12L272.2,691z"/>
<path class="st16" d="M453,707.4c0,0-13.6,37.8,11,31.9s69.4-26.7,69.4-26.7s-0.6-16.1-13.1-15.4s-23.7,11.2-23.7,11.2l-5.4-13.4
	L453,707.4z"/>
<path class="st15" d="M294.2,147L294.2,147c11,0,20,9,20,20v20c0,11-9,20-20,20h0c-11,0-20-9-20-20v-20
	C274.2,156,283.2,147,294.2,147z"/>
<path class="st14" d="M294.2,149c-11,0-20,9-20,20v6.8c13,4.3,27,4.3,40,0V169C314.2,158,305.3,149,294.2,149z"/>
<circle class="st15" cx="294.2" cy="113" r="64"/>
<path class="st14" d="M230.2,110.1c0,0,16,4.1,25-14.1s16-28.1,53-17.4s44.4,12.1,46.2,1.9c1.2-6.9-11.9-23.8-20.4-33.8
	c-4.1-4.9-10.9-7.8-18-7.8h-41.8l-25,11.6l-19,16.5l-4,22.3L230.2,110.1z"/>
<path d="M230.2,108.1c0,0,16,4.1,25-14.1s16-28.1,53-17.4s44.4,12.1,46.2,1.9c1.2-6.9-11.9-23.8-20.4-33.8c-4.1-4.9-10.9-7.8-18-7.8
	h-41.8l-25,11.6l-19,16.5l-4,22.3L230.2,108.1z"/>
<ellipse class="st15" cx="236.7" cy="108" rx="6.5" ry="13"/>
<path d="M232.1,74.6c-1.5-8.4-2.9-17.2-0.2-25.2c2.7-7.8,8.9-13.8,16.7-16.3c5-1.6,10.5-1.5,15.5-3.2c7.1-2.3,12.6-7.7,18.7-11.9
	c5.4-3.7,11.4-6.5,17.7-8.3c5.7-1.6,12.3-2.3,16.9,1.4c3.9,3.1,5.2,8.4,8.4,12.2c3.7,4.4,9.5,6.3,14.6,9.1
	c12.8,7.2,21.3,20.2,22.6,34.8c0.2,2.1,0,4.7-1.8,5.9c-1.1,0.6-2.4,0.8-3.6,0.7c-25.6-0.4-51.2-0.7-76.7-3.1
	c-7.9-0.7-15.9-1.7-23.8-1.4c-12.3,0.5-24.3,3.9-35,9.9"/>
<path class="st6" d="M32.8,645.3h88.5c18.1,0,32.8,14.7,32.8,32.8v0c0,18.1-14.7,32.8-32.8,32.8H32.8C14.7,710.8,0,696.2,0,678.1v0
	C0,659.9,14.7,645.3,32.8,645.3z"/>
<linearGradient id="SVGID_3_" gradientUnits="userSpaceOnUse" x1="725.6791" y1="262.9249" x2="725.6791" y2="265.9249" gradientTransform="matrix(1 0 0 -1 -149.8033 674.1076)">
	<stop  offset="0" style="stop-color:#808080;stop-opacity:0.25"/>
	<stop  offset="0.5351" style="stop-color:#808080;stop-opacity:0.12"/>
	<stop  offset="1" style="stop-color:#808080;stop-opacity:0.1"/>
</linearGradient>
<path class="st17" d="M575.9,411.2c0.8,0,1.5-0.7,1.4-1.6c0-0.8-0.7-1.4-1.4-1.4c-0.8,0-1.5,0.7-1.4,1.6
	C574.5,410.5,575.1,411.2,575.9,411.2z"/>
<line class="st8" x1="796" y1="344" x2="900" y2="714.1"/>
<rect x="338.8" y="333.2" class="st18" width="561.6" height="21.9"/>
<path class="st19" d="M483.7,328h79c3.6,0,6.5,2.9,6.5,6.5l0,0c0,3.6-2.9,6.5-6.5,6.5h-79c-3.6,0-6.5-2.9-6.5-6.5l0,0
	C477.2,330.9,480.1,328,483.7,328z"/>
<g class="st2">
	
		<linearGradient id="SVGID_4_" gradientUnits="userSpaceOnUse" x1="647.5388" y1="408.8218" x2="647.5388" y2="566.923" gradientTransform="matrix(1 0 0 -1 0 750)">
		<stop  offset="0" style="stop-color:#808080;stop-opacity:0.25"/>
		<stop  offset="0.5351" style="stop-color:#808080;stop-opacity:0.12"/>
		<stop  offset="1" style="stop-color:#808080;stop-opacity:0.1"/>
	</linearGradient>
	<path class="st20" d="M561.4,183.1h172.2c15.6,0,28.2,12.6,28.2,28.2V313c0,15.6-12.6,28.2-28.2,28.2H561.4
		c-15.6,0-28.2-12.6-28.2-28.2V211.3C533.2,195.7,545.8,183.1,561.4,183.1z"/>
</g>
<path class="st21" d="M564.1,186h162.9c14.8,0,26.8,12,26.8,26.8v101.5c0,14.8-12,26.8-26.8,26.8H564.1c-14.8,0-26.8-12-26.8-26.8
	V212.8C537.3,198,549.3,186,564.1,186z"/>
<path class="st19" d="M567.1,186h162.9c14.8,0,26.8,12,26.8,26.8v101.5c0,14.8-12,26.8-26.8,26.8H567.1c-14.8,0-26.8-12-26.8-26.8
	V212.8C540.3,198,552.3,186,567.1,186z"/>
<circle class="st18" cx="658.7" cy="262.5" r="7"/>
</svg>
